<svg height="1024" node-id="1" sillyvg="true" template-height="1024" template-width="1024" version="1.1" viewBox="0 0 1024 1024" width="1024" xmlns="http://www.w3.org/2000/svg" xmlns:xlink="http://www.w3.org/1999/xlink"><defs node-id="18"><linearGradient gradientUnits="objectBoundingBox" id="linearGradient1" node-id="20" spreadMethod="pad" x1="0.5" x2="0.5" y1="0" y2="1"><stop offset="0" stop-color="#3b81d1"/><stop offset="1" stop-color="#1e4169"/></linearGradient><linearGradient gradientUnits="objectBoundingBox" id="linear-gradient" node-id="3" spreadMethod="pad" x1="0.5" x2="0.5" y1="0" y2="1"><stop offset="0" stop-color="#3b81d1"/><stop offset="1" stop-color="#1e4169"/></linearGradient></defs><g node-id="32"><path d="M 0.00 0.00 L 1024.00 0.00 L 1024.00 1024.00 L 0.00 1024.00 Z" fill="none" group-id="1" id="矩形_1567" node-id="7" stroke="none" target-height="1024" target-width="1024" target-x="0" target-y="0"/></g><g node-id="33"><g node-id="34"><path d="M 439.82 26.36 L 588.37 59.24 L 409.89 101.42 L 233.34 61.59 Z" fill="#5ea1ed" fill-rule="nonzero" group-id="2,3" id="路径_5999" node-id="9" stroke="none" target-height="75.053" target-width="355.03003" target-x="233.33972" target-y="26.363998"/></g><g node-id="35"><path d="M 326.89 222.50 L 535.07 186.58 L 521.39 402.69 L 313.77 438.26 Z" fill="url(#linearGradient1)" fill-rule="nonzero" group-id="2,4" id="路径_6001" node-id="10" stroke="none" target-height="251.682" target-width="221.30002" target-x="313.7687" target-y="186.58301"/></g><g node-id="36"><path d="M 265.73 720.06 L 532.80 720.06 L 532.80 877.17 L 265.73 877.17 Z" fill="#1765be" fill-rule="nonzero" group-id="2,5" id="矩形_1566" node-id="11" stroke="none" target-height="157.112" target-width="267.07898" target-x="265.7257" target-y="720.057"/></g><g node-id="37"><path d="M 305.38 561.19 L 513.05 523.54 L 497.98 749.43 L 290.32 785.68 Z" fill="url(#linear-gradient)" fill-rule="nonzero" group-id="2,6" id="路径_6002" node-id="12" stroke="none" target-height="262.14294" target-width="222.73105" target-x="290.3157" target-y="523.536"/></g><g node-id="38"><path d="M 462.01 995.51 C 462.01 995.51 437.84 996.33 370.61 957.24 C 307.42 920.50 206.19 848.50 194.26 839.98 L 192.01 839.79 L 233.45 61.53 L 337.35 85.25 L 337.35 85.27 C 346.20 86.86 447.84 105.49 491.78 130.09 C 510.85 140.77 532.41 153.68 548.72 168.59 C 561.83 180.61 573.46 194.17 583.34 208.96 C 583.34 208.96 634.38 259.80 624.81 399.43 C 623.69 416.20 620.82 432.81 616.24 448.98 C 605.98 485.19 593.72 514.00 574.36 536.09 C 570.24 540.79 559.74 553.50 545.18 561.28 C 527.41 571.44 513.19 571.20 513.19 571.20 L 512.50 577.25 C 512.50 577.25 554.53 611.66 579.67 659.23 C 604.82 706.80 615.65 755.39 615.21 796.20 C 614.77 837.00 614.67 897.71 576.91 954.70 C 552.82 991.06 512.71 997.64 486.82 997.64 C 478.50 997.71 470.19 997.00 462.01 995.51 Z M 350.99 822.44 C 350.99 822.44 394.06 849.29 424.04 851.84 C 454.02 854.39 470.91 832.63 470.91 832.63 C 470.91 832.63 490.42 792.92 491.27 753.81 C 492.12 714.70 474.32 676.18 474.32 676.18 C 474.32 676.18 449.08 636.56 425.34 620.81 C 401.61 605.06 394.16 599.67 374.02 591.10 C 353.88 582.53 363.29 585.96 343.29 577.39 C 331.23 572.23 315.81 565.81 305.46 561.53 L 290.46 785.53 Z M 383.56 466.33 C 407.77 474.43 410.27 474.83 430.46 473.73 C 460.86 472.07 474.25 448.29 476.14 446.15 C 499.29 407.89 492.41 345.61 491.57 338.91 C 490.72 332.22 480.51 291.28 453.05 270.01 C 425.60 248.75 383.68 237.48 383.68 237.48 L 328.18 222.22 L 314.73 423.16 L 313.74 437.84 C 325.64 442.85 373.98 463.12 383.56 466.33 Z" fill="#77b7ff" fill-rule="nonzero" group-id="2,7" id="联合_4" node-id="13" stroke="none" target-height="936.17944" target-width="442.373" target-x="192.01172" target-y="61.528"/></g><g node-id="39"><path d="M 409.93 100.94 C 409.93 100.94 516.05 125.21 570.15 188.71 C 621.96 252.21 624.89 326.31 627.76 353.84 C 624.89 414.24 624.89 412.78 616.08 449.27 C 606.98 485.57 594.87 509.67 570.15 540.12 C 543.13 568.46 512.82 570.25 512.82 570.25 L 512.82 576.27 C 512.82 576.27 558.40 617.31 585.77 668.43 C 609.84 720.06 616.08 779.00 616.08 779.00 C 616.08 779.00 619.30 853.10 604.04 903.08 C 594.87 924.42 582.83 950.14 567.85 966.77 C 556.48 977.73 542.79 986.02 527.80 991.02 L 697.48 962.20 C 697.48 962.20 718.69 962.20 737.24 956.18 C 754.80 948.69 770.14 935.01 770.14 935.01 C 770.14 935.01 800.37 906.18 812.12 857.82 C 824.52 809.29 821.58 741.06 821.58 741.06 C 821.58 741.06 812.12 674.63 788.69 624.80 C 763.61 574.64 718.69 541.43 718.69 541.43 L 718.69 535.39 C 718.69 535.39 748.93 533.76 773.07 511.14 C 794.57 488.66 812.13 444.54 812.13 444.54 C 812.13 444.54 824.53 406.60 830.69 365.72 C 833.62 323.55 830.69 281.20 830.69 281.20 C 830.69 281.20 824.52 229.59 800.38 188.72 C 776.66 149.30 739.83 117.56 739.83 117.56 C 718.58 104.37 696.38 92.77 673.41 82.86 C 636.93 67.73 588.71 58.77 588.71 58.77" fill="#5ea1ed" fill-rule="nonzero" group-id="2,8" id="路径_6000" node-id="14" stroke="none" target-height="932.249" target-width="423.69287" target-x="409.93066" target-y="58.770264"/></g><g node-id="40"><path d="M 313.65 438.34 C 313.65 438.34 386.60 473.02 416.91 473.02 C 435.47 474.65 447.22 471.73 459.54 465.53 C 471.65 459.35 477.45 447.30 477.45 447.30 C 481.46 441.86 484.55 435.81 486.63 429.38 C 489.85 418.47 492.43 404.96 492.43 404.96" fill="#1765be" fill-rule="nonzero" group-id="2,9" id="路径_6004" node-id="15" stroke="none" target-height="69.683105" target-width="178.77246" target-x="313.6538" target-y="404.96484"/></g><path d="M 409.93 100.94 C 409.93 100.94 516.05 125.21 570.15 188.71 C 621.96 252.21 624.89 326.31 627.76 353.84 C 624.89 414.24 624.89 412.78 616.08 449.27 C 606.98 485.57 594.87 509.67 570.15 540.12 C 543.13 568.46 512.82 570.25 512.82 570.25 L 512.82 576.27 C 512.82 576.27 558.40 617.31 585.77 668.43 C 609.84 720.06 616.08 779.00 616.08 779.00 C 616.08 779.00 619.30 853.10 604.04 903.08 C 594.87 924.42 582.83 950.14 567.85 966.77 C 556.48 977.73 542.79 986.02 527.80 991.02 L 697.48 962.20 C 697.48 962.20 718.69 962.20 737.24 956.18 C 754.80 948.69 770.14 935.01 770.14 935.01 C 770.14 935.01 800.37 906.18 812.12 857.82 C 824.52 809.29 821.58 741.06 821.58 741.06 C 821.58 741.06 812.12 674.63 788.69 624.80 C 763.61 574.64 718.69 541.43 718.69 541.43 L 718.69 535.39 C 718.69 535.39 748.93 533.76 773.07 511.14 C 794.57 488.66 812.13 444.54 812.13 444.54 C 812.13 444.54 824.53 406.60 830.69 365.72 C 833.62 323.55 830.69 281.20 830.69 281.20 C 830.69 281.20 824.52 229.59 800.38 188.72 C 776.66 149.30 739.83 117.56 739.83 117.56 C 718.58 104.37 696.38 92.77 673.41 82.86 C 636.93 67.73 588.71 58.77 588.71 58.77" fill="#5ea1ed" fill-rule="nonzero" group-id="2,10" id="路径_6005" node-id="16" stroke="none" target-height="932.249" target-width="423.69287" target-x="409.93066" target-y="58.770264"/></g></svg>