<svg height="1024" node-id="1" sillyvg="true" template-height="1024" template-width="1024" version="1.1" viewBox="0 0 1024 1024" width="1024" xmlns="http://www.w3.org/2000/svg" xmlns:xlink="http://www.w3.org/1999/xlink"><defs node-id="23"><linearGradient gradientUnits="objectBoundingBox" id="linearGradient1" node-id="25" spreadMethod="pad" x1="0.312" x2="0.5" y1="0.526" y2="1"><stop offset="0" stop-color="#2f66a4"/><stop offset="1" stop-color="#183352"/></linearGradient><linearGradient gradientUnits="objectBoundingBox" id="linear-gradient" node-id="3" spreadMethod="pad" x1="0.312" x2="0.5" y1="0.526" y2="1"><stop offset="0" stop-color="#2f66a4"/><stop offset="1" stop-color="#183352"/></linearGradient></defs><g node-id="37"><path d="M 0.00 0.00 L 1024.00 0.00 L 1024.00 1024.00 L 0.00 1024.00 Z" fill="none" group-id="1" id="矩形_1567" node-id="7" stroke="none" target-height="1024" target-width="1024" target-x="0" target-y="0"/></g><g node-id="38"><g node-id="40"><path d="M 847.94 407.39 L 848.03 407.36 L 848.00 407.31 L 847.91 407.34 Z" fill="#ebebeb" fill-rule="nonzero" group-id="2,4" id="路径_6009" node-id="9" stroke="none" target-height="0.07885742" target-width="0.115234375" target-x="847.91016" target-y="407.30884"/></g><g node-id="41"><path d="M 848.10 405.97 L 848.68 405.78 L 848.49 406.02 L 847.91 406.21 Z" fill="#3979c1" fill-rule="nonzero" group-id="2,5" id="路径_6006" node-id="10" stroke="none" target-height="0.42999268" target-width="0.7680054" target-x="847.9109" target-y="405.77798"/></g><g node-id="42"><path d="M 847.88 407.02 L 848.46 406.84 L 848.55 407.19 L 847.97 407.37 Z" fill="#5ea1ed" fill-rule="nonzero" group-id="2,6" id="路径_6007" node-id="11" stroke="none" target-height="0.53900146" target-width="0.6749878" target-x="847.8779" target-y="406.83597"/></g><g node-id="43"><path d="M 847.91 406.21 L 848.01 406.18 C 848.01 406.18 848.01 406.19 848.01 406.23 C 848.01 406.27 848.01 406.33 848.01 406.33 C 848.01 406.39 848.02 406.45 848.03 406.52 C 848.05 406.58 848.07 406.63 848.10 406.69 C 848.11 406.71 848.13 406.74 848.15 406.77 C 848.17 406.79 848.20 406.81 848.22 406.83 C 848.23 406.84 848.25 406.84 848.26 406.85 C 848.27 406.85 848.29 406.86 848.30 406.86 C 848.32 406.87 848.34 406.87 848.36 406.86 C 848.39 406.85 848.43 406.85 848.46 406.83 L 847.88 407.02 C 847.84 407.04 847.81 407.05 847.77 407.05 C 847.73 407.05 847.69 407.04 847.66 407.03 C 847.63 407.01 847.60 406.99 847.58 406.96 C 847.55 406.94 847.54 406.91 847.52 406.88 C 847.49 406.82 847.46 406.75 847.45 406.68 C 847.43 406.61 847.43 406.53 847.43 406.45 C 847.43 406.36 847.45 406.27 847.47 406.18 C 847.49 406.12 847.53 406.07 847.58 406.03 C 847.61 406.01 847.64 406.00 847.67 406.00 C 847.71 406.01 847.74 406.01 847.77 406.03 C 847.80 406.05 847.83 406.07 847.85 406.10 C 847.87 406.13 847.89 406.17 847.91 406.21 Z" fill="url(#linearGradient1)" fill-rule="nonzero" group-id="2,7" id="路径_6008" node-id="12" stroke="none" target-height="1.0498047" target-width="1.0288086" target-x="847.4282" target-y="406.00415"/></g><g node-id="44"><path d="M 848.10 405.97 L 848.68 405.78 C 848.64 405.71 848.59 405.64 848.54 405.58 C 848.49 405.53 848.44 405.49 848.38 405.46 C 848.32 405.44 848.26 405.43 848.21 405.42 C 848.16 405.42 848.12 405.43 848.07 405.45 L 847.51 405.63 C 847.55 405.62 847.59 405.61 847.63 405.61 C 847.68 405.62 847.73 405.63 847.77 405.64 C 847.84 405.67 847.90 405.70 847.94 405.75 C 848.00 405.82 848.06 405.89 848.10 405.97 Z" fill="#5ea1ed" fill-rule="nonzero" group-id="2,8" id="路径_6010" node-id="13" stroke="none" target-height="0.54418945" target-width="1.1699219" target-x="847.5078" target-y="405.42188"/></g><path d="M 847.91 406.21 L 848.10 405.97 C 848.06 405.90 848.02 405.84 847.97 405.79 C 847.94 405.75 847.90 405.72 847.85 405.69 C 847.83 405.67 847.80 405.66 847.78 405.65 C 847.75 405.64 847.72 405.63 847.70 405.63 C 847.67 405.62 847.64 405.62 847.62 405.62 C 847.59 405.62 847.56 405.62 847.54 405.63 C 847.48 405.65 847.42 405.68 847.38 405.72 C 847.33 405.77 847.29 405.83 847.26 405.89 C 847.23 405.96 847.21 406.03 847.19 406.11 C 847.18 406.18 847.17 406.26 847.17 406.34 C 847.17 406.41 847.18 406.48 847.18 406.55 C 847.19 406.63 847.21 406.71 847.23 406.78 C 847.25 406.85 847.27 406.91 847.30 406.97 C 847.33 407.03 847.36 407.09 847.40 407.14 C 847.44 407.19 847.48 407.23 847.52 407.27 C 847.56 407.31 847.61 407.34 847.66 407.37 C 847.71 407.39 847.77 407.40 847.82 407.41 C 847.88 407.41 847.93 407.40 847.97 407.38 L 847.88 407.03 C 847.85 407.04 847.81 407.05 847.78 407.05 C 847.75 407.06 847.72 407.05 847.69 407.04 C 847.66 407.03 847.64 407.02 847.62 407.00 C 847.59 406.98 847.57 406.96 847.55 406.93 C 847.53 406.90 847.50 406.86 847.49 406.82 C 847.47 406.78 847.46 406.74 847.45 406.70 C 847.44 406.66 847.43 406.61 847.43 406.57 C 847.43 406.51 847.43 406.44 847.43 406.44 C 847.43 406.44 847.43 406.37 847.44 406.31 C 847.45 406.27 847.46 406.23 847.46 406.20 C 847.48 406.16 847.50 406.12 847.53 406.08 C 847.55 406.05 847.58 406.03 847.61 406.02 C 847.64 406.01 847.67 406.00 847.70 406.01 C 847.73 406.01 847.76 406.03 847.79 406.04 C 847.81 406.07 847.83 406.09 847.85 406.11 C 847.88 406.14 847.89 406.18 847.91 406.21 Z" fill="#77b7ff" fill-rule="nonzero" group-id="2,9" id="路径_6011" node-id="14" stroke="none" target-height="1.7885742" target-width="0.9267578" target-x="847.1719" target-y="405.61963"/></g><g node-id="39"><g node-id="46"><path d="M 520.13 982.28 L 562.22 967.71 L 551.12 943.77 L 506.72 960.19 Z" fill="#ebebeb" fill-rule="nonzero" group-id="3,10" id="路径_6009-2" node-id="16" stroke="none" target-height="38.508057" target-width="55.50049" target-x="506.72266" target-y="943.7688"/></g><g node-id="47"><path d="M 595.79 292.69 L 877.65 201.11 L 786.50 318.24 L 504.92 410.16 Z" fill="#3979c1" fill-rule="nonzero" group-id="3,11" id="路径_6006-2" node-id="17" stroke="none" target-height="209.04903" target-width="372.727" target-x="504.92255" target-y="201.106"/></g><g node-id="48"><path d="M 487.95 806.17 L 769.47 714.41 L 815.56 884.56 L 533.98 976.47 Z" fill="#5ea1ed" fill-rule="nonzero" group-id="3,12" id="路径_6007-2" node-id="18" stroke="none" target-height="262.06403" target-width="327.608" target-x="487.95255" target-y="714.409"/></g><g node-id="49"><path d="M 504.34 410.22 L 553.38 394.38 C 553.38 394.38 552.69 400.73 551.29 419.24 C 551.06 437.97 550.37 468.38 550.37 468.38 C 550.37 468.38 551.29 516.60 562.63 560.31 C 572.57 603.91 593.39 643.34 593.39 643.34 C 593.39 643.34 604.95 664.15 619.29 681.27 C 635.25 698.27 654.67 711.79 654.67 711.79 C 660.14 715.60 666.04 718.75 672.25 721.16 C 679.12 723.86 686.15 726.14 693.30 727.98 C 693.30 727.98 703.47 730.53 722.90 727.52 C 741.40 724.51 768.92 714.69 768.92 714.69 L 486.77 806.15 C 486.77 806.15 459.71 820.61 433.12 821.07 C 406.98 821.88 381.08 808.81 381.08 808.81 C 381.08 808.81 357.26 794.13 340.61 776.55 C 323.73 758.86 313.32 738.16 313.32 738.16 C 313.32 738.16 288.80 693.06 277.70 640.91 C 267.06 588.99 269.38 529.79 269.38 529.79 C 269.38 529.79 271.46 449.42 290.42 397.73 C 308.92 345.81 344.08 322.57 344.08 322.57 C 344.08 322.57 364.43 310.20 386.17 310.65 C 409.07 310.89 432.89 323.84 432.89 323.84 C 447.38 333.01 460.27 344.49 471.04 357.84 C 489.08 379.34 504.34 410.22 504.34 410.22 Z" fill="url(#linear-gradient)" fill-rule="nonzero" group-id="3,13" id="路径_6008-2" node-id="19" stroke="none" target-height="511.68457" target-width="501.85742" target-x="267.063" target-y="310.1953"/></g><g node-id="50"><path d="M 595.77 292.61 L 877.46 201.14 C 877.46 201.14 845.78 143.90 809.24 106.32 C 773.16 68.97 732.69 51.16 732.69 51.16 C 732.69 51.16 689.44 32.54 648.50 31.96 C 607.80 31.50 584.44 43.76 584.44 43.76 L 309.46 133.26 C 309.46 133.26 337.90 122.97 370.06 124.01 C 401.97 125.17 438.97 137.77 438.97 137.77 C 438.97 137.77 481.76 152.69 521.54 191.54 C 560.85 230.17 595.77 292.61 595.77 292.61 Z" fill="#5ea1ed" fill-rule="nonzero" group-id="3,14" id="路径_6010-2" node-id="20" stroke="none" target-height="261.10913" target-width="567.9995" target-x="309.46338" target-y="31.497803"/></g><path d="M 505.34 409.98 L 596.47 292.38 C 596.47 292.38 564.55 239.77 535.41 206.01 C 504.88 172.47 477.12 156.74 477.12 156.74 C 465.33 149.58 452.96 143.42 440.12 138.36 C 427.39 133.52 414.23 129.92 400.81 127.61 C 400.81 127.61 381.84 123.33 362.88 124.02 C 343.45 124.37 323.56 128.99 323.56 128.99 C 323.56 128.99 279.16 140.44 244.93 172.36 C 212.09 204.16 188.50 256.42 188.50 256.42 C 188.50 256.42 166.76 306.26 156.12 360.72 C 146.41 414.96 146.41 473.59 146.41 473.59 C 146.41 473.59 145.48 524.93 151.04 578.35 C 157.98 632.01 172.31 688.44 172.31 688.44 C 172.31 688.44 186.18 738.51 207.00 782.22 C 227.82 825.58 255.57 862.58 255.57 862.58 C 255.57 862.58 283.78 899.47 315.23 927.11 C 347.61 954.28 383.23 972.09 383.23 972.09 C 383.23 972.09 424.86 990.82 462.33 991.98 C 500.25 993.25 534.48 976.60 534.48 976.60 L 488.23 806.27 C 488.23 806.27 462.79 818.53 439.66 820.49 C 417.46 822.69 396.65 814.59 396.65 814.59 C 384.09 809.82 372.37 803.07 361.95 794.59 C 344.38 781.07 328.65 760.83 328.65 760.83 C 328.65 760.83 310.61 734.35 298.59 706.37 C 291.30 687.35 285.12 667.93 280.08 648.20 C 280.08 648.20 273.15 616.28 270.37 585.18 C 268.52 554.31 269.90 523.78 269.90 523.78 C 269.90 523.78 272.22 487.59 276.38 457.64 C 279.17 439.65 283.03 421.85 287.94 404.33 C 287.94 404.33 299.97 369.53 318.47 347.32 C 335.12 325.00 358.71 315.64 358.71 315.64 C 358.71 315.64 378.60 308.58 400.81 311.94 C 422.08 315.64 443.83 329.97 443.83 329.97 C 456.10 340.00 467.26 351.32 477.12 363.74 C 491.47 383.73 505.34 409.98 505.34 409.98 Z" fill="#77b7ff" fill-rule="nonzero" group-id="3,15" id="路径_6011-2" node-id="21" stroke="none" target-height="869.927" target-width="450.98438" target-x="145.48242" target-y="123.32788"/></g></svg>